<svg xmlns="http://www.w3.org/2000/svg" width="430" height="430" style="width:100%;height:100%;transform:translate3d(0,0,0);content-visibility:visible" viewBox="0 0 430 430"><defs><clipPath id="m"><path d="M0 0h430v430H0z"/></clipPath><clipPath id="w"><path d="M0 0h430v430H0z"/></clipPath><clipPath id="h"><path d="M0 0h430v430H0z"/></clipPath><clipPath id="t"><path d="M0 0h430v430H0z"/></clipPath><clipPath id="j"><path d="M0 0h430v430H0z"/></clipPath><clipPath id="q"><path d="M0 0h430v430H0z"/></clipPath><clipPath id="k"><path d="M0 0h430v430H0z"/></clipPath><clipPath id="n"><path d="M0 0h430v430H0z"/></clipPath><clipPath id="l"><path d="M0 0h430v430H0z"/></clipPath><filter id="x" width="300%" height="300%" x="-100%" y="-100%"><feGaussianBlur result="filter_result_0"/></filter><filter id="v" width="300%" height="300%" x="-100%" y="-100%"><feGaussianBlur result="filter_result_0" stdDeviation="52.5 52.5"/></filter><filter id="r" width="300%" height="300%" x="-100%" y="-100%"><feGaussianBlur result="filter_result_0"/></filter><filter id="o" width="300%" height="300%" x="-100%" y="-100%"><feGaussianBlur result="filter_result_0"/></filter><mask id="y" mask-type="alpha"><use xmlns:ns1="http://www.w3.org/1999/xlink" ns1:href="#a"/></mask><mask id="u" mask-type="alpha"><use xmlns:ns2="http://www.w3.org/1999/xlink" ns2:href="#b"/></mask><mask id="s" mask-type="alpha"><use xmlns:ns3="http://www.w3.org/1999/xlink" ns3:href="#d"/></mask><mask id="p" mask-type="alpha"><use xmlns:ns4="http://www.w3.org/1999/xlink" ns4:href="#f"/></mask><g id="a" fill-opacity="0" clip-path="url(#h)" style="display:none"><path stroke-linecap="round" class="secondary" style="display:none"/><path stroke-linecap="round" class="secondary" style="display:none"/><path class="primary" style="display:none"/></g><g id="b" fill-opacity="0" stroke-width="12" clip-path="url(#j)" style="display:block"><path stroke="#08A88A" stroke-linecap="round" d="M-85 0H85" class="secondary" style="display:block" transform="translate(215.157 214.992)scale(.90504)"/><path stroke="#08A88A" stroke-linecap="round" d="M-85 0H85" class="secondary" style="display:block" transform="rotate(90 .082 215.074)scale(.90504)"/><path stroke="#121331" d="M0-167.5c92.443 0 167.5 75.057 167.5 167.5S92.443 167.5 0 167.5-167.5 92.443-167.5 0-92.443-167.5 0-167.5z" class="primary" style="display:block" transform="translate(215 215)"/></g><g id="d" fill-opacity="0" stroke-linecap="round" clip-path="url(#k)" style="display:none"><path stroke-linejoin="round" class="primary" style="display:none"/><path stroke-linejoin="round" class="primary" style="display:none"/><path class="secondary" style="display:none"/><path class="secondary" style="display:none"/><path class="secondary" style="display:none"/><path class="secondary" style="display:none"/><path stroke-linejoin="round" class="secondary" style="display:none"/><path stroke-linejoin="round" class="secondary" style="display:none"/></g><g id="f" fill-opacity="0" clip-path="url(#l)" style="display:none"><path stroke-linecap="round" class="secondary" style="display:none"/><path stroke-linecap="round" class="secondary" style="display:none"/><path class="primary" style="display:none"/></g></defs><g clip-path="url(#m)"><g clip-path="url(#n)" filter="url(#o)" mask="url(#p)" style="display:none"><g class="design"><path class="primary"/></g><g class="design"><path class="secondary"/></g></g><g clip-path="url(#q)" filter="url(#r)" mask="url(#s)" style="display:none"><g class="design"><path class="primary"/></g><g class="design"><path class="secondary"/></g></g><g clip-path="url(#t)" mask="url(#u)" style="display:block"><g filter="url(#v)" transform="rotate(-94 238.418 7.126)scale(2.4)"><g class="design"><path fill="#4AE0EB" d="M0-250c137.975 0 250 112.025 250 250S137.975 250 0 250-250 137.975-250 0-137.975-250 0-250" class="primary"/></g><g class="design"><path fill="#CA5EED" d="M113.242-295.384c97.478 0 176.5 79.022 176.5 176.5s-79.022 176.5-176.5 176.5c-43.948 0-74.396-34.057-105.29-60.631-37.631-32.369-71.21-62.338-71.21-115.869 0-97.478 79.022-176.5 176.5-176.5" class="secondary"/></g></g></g><g clip-path="url(#w)" filter="url(#x)" mask="url(#y)" style="display:none"><g class="design"><path class="primary"/></g><g class="design"><path class="secondary"/></g></g></g></svg>